<?xml version="1.0" encoding="UTF-8"?><svg id="Layer_2" xmlns="http://www.w3.org/2000/svg" viewBox="0 0 402.53 422.26"><defs><style>.cls-1{stroke:#c7b299;stroke-width:25px;}.cls-1,.cls-2,.cls-3,.cls-4{fill:none;stroke-miterlimit:10;}.cls-5{fill:#f76014;stroke-width:0px;}.cls-2{stroke:#ea4235;}.cls-2,.cls-3,.cls-4{stroke-width:30px;}.cls-3{stroke:#4286f5;}.cls-4{stroke:#34a853;}</style></defs><g id="Layer_1-2"><path class="cls-1" d="M101.09,171.3c8.12-1.88,21.85-3.98,38.25-.94,6.82,1.27,18.48,3.43,28.73,10.91,13.04,9.51,18.64,23.83,23.56,43.62,5.21,20.98,10.89,53.17,9.71,95.12"/><path class="cls-1" d="M301.44,213.3c-8.64-1.79-22.16-3.51-38.25-.94,0,0-14.16,2.26-24.95,7.27-22.9,10.62-37.81,51.03-36.89,100.38"/><path class="cls-1" d="M201.35,101.09v218.92"/><circle class="cls-2" cx="58.05" cy="166.15" r="43.05"/><circle class="cls-4" cx="201.35" cy="58.05" r="43.05"/><circle class="cls-3" cx="344.49" cy="209.2" r="43.05"/><path class="cls-5" d="M201.35,320.01h89.95c5.48,0,8.22,6.62,4.35,10.49l-89.95,89.95c-2.4,2.4-6.29,2.4-8.69,0l-89.95-89.95c-3.87-3.87-1.13-10.49,4.35-10.49h89.95Z"/></g></svg>