<?xml version="1.0" encoding="UTF-8"?><svg id="Layer_1" xmlns="http://www.w3.org/2000/svg" viewBox="0 0 402.53 422.26"><defs><style>.cls-1{stroke:#4286f5;}.cls-1,.cls-2,.cls-3,.cls-4{stroke-miterlimit:10;}.cls-1,.cls-2,.cls-4{fill:#fff;stroke-width:30px;}.cls-2{stroke:#ea4235;}.cls-5{fill:#f76014;stroke-width:0px;}.cls-3{fill:none;stroke:#26353c;stroke-width:25px;}.cls-4{stroke:#34a853;}</style></defs><path class="cls-3" d="M101.09,171.3c8.12-1.88,21.85-3.98,38.25-.94,6.82,1.27,18.48,3.43,28.73,10.91,13.04,9.51,18.64,23.83,23.56,43.62,5.21,20.98,10.89,53.17,9.71,95.12"/><path class="cls-3" d="M309.45,210.43c-8.99-1.42-27.44-3.38-46.26,1.93-9.07,2.56-16.09,6.21-17.14,6.76-3.72,1.96-10.44,5.55-17.27,12.07-7.62,7.28-11.52,14.53-14.13,19.48-8.5,16.11-10.33,30.91-12.02,45.56-1.11,9.64-1.32,17.81-1.28,23.78"/><path class="cls-3" d="M201.35,101.09v218.92"/><circle class="cls-2" cx="58.05" cy="166.15" r="43.05"/><circle class="cls-4" cx="201.35" cy="58.05" r="43.05"/><circle class="cls-1" cx="344.49" cy="209.2" r="43.05"/><path class="cls-5" d="M201.35,320.01h89.95c5.48,0,8.22,6.62,4.35,10.49l-89.95,89.95c-2.4,2.4-6.29,2.4-8.69,0l-89.95-89.95c-3.87-3.87-1.13-10.49,4.35-10.49h89.95Z"/></svg>